<?xml version="1.0" standalone="no"?><!DOCTYPE svg PUBLIC "-//W3C//DTD SVG 1.1//EN" "http://www.w3.org/Graphics/SVG/1.1/DTD/svg11.dtd"><svg class="icon" width="200px" height="187.55px" viewBox="0 0 1092 1024" version="1.1" xmlns="http://www.w3.org/2000/svg"><path fill="#1296db" d="M569.7536 7.850667l484.352 464.554666a34.133333 34.133333 0 0 1-23.6544 58.7776h-125.201067v450.423467a34.133333 34.133333 0 0 1-34.133333 34.133333H221.184a34.133333 34.133333 0 0 1-34.133333-34.133333l-0.034134-450.423467H61.815467a34.133333 34.133333 0 0 1-23.620267-58.743466L522.513067 7.816533a34.133333 34.133333 0 0 1 47.240533 0zM443.733333 634.231467h-68.266666v276.411733h68.266666v-276.411733z m273.066667 0h-68.266667v276.411733h68.266667v-276.411733z"  /></svg>