<?xml version="1.0" standalone="no"?><!DOCTYPE svg PUBLIC "-//W3C//DTD SVG 1.1//EN" "http://www.w3.org/Graphics/SVG/1.1/DTD/svg11.dtd"><svg t="1622698401978" class="icon" viewBox="0 0 1024 1024" version="1.1" xmlns="http://www.w3.org/2000/svg" p-id="16070" xmlns:xlink="http://www.w3.org/1999/xlink" width="200" height="200"><defs><style type="text/css"></style></defs><path d="M512 512m-496.716418 0a496.716418 496.716418 0 1 0 993.432836 0 496.716418 496.716418 0 1 0-993.432836 0Z" fill="" p-id="16071"></path><path d="M427.940299 351.522388c16.81194 0 30.567164 13.755224 30.567164 30.567164v259.820896c0 16.81194-13.755224 30.567164-30.567164 30.567164s-30.567164-13.755224-30.567165-30.567164V382.089552c0-16.81194 13.755224-30.567164 30.567165-30.567164z m168.119402 0c16.81194 0 30.567164 13.755224 30.567165 30.567164v259.820896c0 16.81194-13.755224 30.567164-30.567165 30.567164s-30.567164-13.755224-30.567164-30.567164V382.089552c0-16.81194 13.755224-30.567164 30.567164-30.567164z" fill="#FFFFFF" p-id="16072"></path></svg>