<?xml version="1.0" standalone="no"?><!DOCTYPE svg PUBLIC "-//W3C//DTD SVG 1.1//EN" "http://www.w3.org/Graphics/SVG/1.1/DTD/svg11.dtd"><svg t="1622680876281" class="icon" viewBox="0 0 1024 1024" version="1.1" xmlns="http://www.w3.org/2000/svg" p-id="7690" xmlns:xlink="http://www.w3.org/1999/xlink" width="200" height="200"><defs><style type="text/css"></style></defs><path d="M170.666667 878.592a42.666667 42.666667 0 0 1-42.666667-42.666667V810.666667a42.666667 42.666667 0 0 1 42.666667-42.666667h682.666666a42.666667 42.666667 0 0 1 42.666667 42.666667v25.258666a42.666667 42.666667 0 0 1-42.666667 42.666667z m0-298.666667a42.666667 42.666667 0 0 1-42.666667-42.666666V512a42.666667 42.666667 0 0 1 42.666667-42.666667h682.666666a42.666667 42.666667 0 0 1 42.666667 42.666667v25.258667a42.666667 42.666667 0 0 1-42.666667 42.666666z m0-298.666666a42.666667 42.666667 0 0 1-42.666667-42.666667V213.333333a42.666667 42.666667 0 0 1 42.666667-42.666666h682.666666a42.666667 42.666667 0 0 1 42.666667 42.666666v25.258667a42.666667 42.666667 0 0 1-42.666667 42.666667z" p-id="7691"></path></svg>