<?xml version="1.0" standalone="no"?><!DOCTYPE svg PUBLIC "-//W3C//DTD SVG 1.1//EN" "http://www.w3.org/Graphics/SVG/1.1/DTD/svg11.dtd"><svg class="icon" width="200px" height="177.16px" viewBox="0 0 1156 1024" version="1.1" xmlns="http://www.w3.org/2000/svg"><path fill="#d81e06" d="M435.596387 0c240.573935 0 435.596387 195.022452 435.596387 435.596387 0 67.848258-15.525161 132.062968-43.206193 189.307871l317.836387 239.483871-104.844387 139.131871-318.596129-240.078452a433.911742 433.911742 0 0 1-286.786065 107.751226C195.022452 871.192774 0 676.170323 0 435.596387 0 195.022452 195.022452 0 435.596387 0z m0 108.907355c-180.422194 0-326.689032 146.266839-326.689032 326.689032 0 180.422194 146.266839 326.689032 326.689032 326.689032 180.422194 0 326.689032-146.266839 326.689032-326.689032 0-180.422194-146.266839-326.689032-326.689032-326.689032z m0 43.536516a283.119484 283.119484 0 1 1 0 566.272 283.119484 283.119484 0 0 1 0-566.272z"  /></svg>