<?xml version="1.0" standalone="no"?><!DOCTYPE svg PUBLIC "-//W3C//DTD SVG 1.1//EN" "http://www.w3.org/Graphics/SVG/1.1/DTD/svg11.dtd"><svg t="1622680894365" class="icon" viewBox="0 0 1125 1024" version="1.1" xmlns="http://www.w3.org/2000/svg" p-id="7839" xmlns:xlink="http://www.w3.org/1999/xlink" width="219.7265625" height="200"><defs><style type="text/css"></style></defs><path d="M723.205626 332.8a279.04 279.04 0 0 1 0 270.72 26.24 26.24 0 0 1-22.4 12.16 24.96 24.96 0 0 1-24.96-25.6 22.4 22.4 0 0 1 3.2-12.8 224.64 224.64 0 0 0 0-218.24 25.6 25.6 0 1 1 43.52-26.24z m121.6-177.92a24.96 24.96 0 0 0-35.2-8.32 26.24 26.24 0 0 0-8.32 35.2 584.96 584.96 0 0 1 0 570.88 29.44 29.44 0 0 0-3.2 12.8 25.6 25.6 0 0 0 25.6 25.6 24.96 24.96 0 0 0 21.12-10.24 640 640 0 0 0 0-625.92z m-256-88.32v798.08a64 64 0 0 1-33.92 58.24 72.96 72.96 0 0 1-34.56 8.96 69.12 69.12 0 0 1-35.2-9.6l-67.84-41.6a1173.76 1173.76 0 0 0-158.72-89.6H40.325626a40.32 40.32 0 0 1-40.32-40.96V182.4a40.96 40.96 0 0 1 40.32-41.6h218.88c9.6 0 83.2-47.36 137.6-79.36 31.36-18.56 64-37.76 88.32-51.84A68.48 68.48 0 0 1 554.245626 12.8a64 64 0 0 1 34.56 53.76z m-25.6 0z" p-id="7840"></path></svg>